<svg width="28" height="28" viewBox="0 0 28 28" fill="none" xmlns="http://www.w3.org/2000/svg">
<path d="M19.0914 18.3037C18.4789 18.085 17.4781 18.074 17.0352 17.9045C16.7289 17.7842 16.2422 17.6529 16.0836 17.4615C15.925 17.2701 15.925 15.9029 15.925 15.9029C15.925 15.9029 16.3078 15.542 16.4664 15.1373C16.625 14.7381 16.7289 13.6334 16.7289 13.6334C16.7289 13.6334 17.0898 13.7865 17.232 13.0646C17.3523 12.4412 17.582 12.1131 17.5219 11.6537C17.4562 11.1943 17.2047 11.3037 17.2047 11.3037C17.2047 11.3037 17.5219 10.8389 17.5219 9.2584C17.5219 7.62871 16.2914 6.02637 13.9891 6.02637C11.6922 6.02637 10.4508 7.63418 10.4508 9.2584C10.4508 10.8389 10.7625 11.3037 10.7625 11.3037C10.7625 11.3037 10.5055 11.1943 10.4453 11.6537C10.3797 12.1131 10.6094 12.4412 10.7352 13.0646C10.8773 13.792 11.2383 13.6334 11.2383 13.6334C11.2383 13.6334 11.3422 14.7326 11.5008 15.1373C11.6594 15.542 12.0422 15.9029 12.0422 15.9029C12.0422 15.9029 12.0422 17.2701 11.8836 17.4615C11.725 17.6529 11.2383 17.7842 10.932 17.899C10.4945 18.0686 9.49375 18.0904 8.87578 18.3092C8.26328 18.5279 6.37109 19.5232 6.37109 21.9842H21.5906C21.5961 19.5178 19.7039 18.5225 19.0914 18.3037Z" fill="#E1E1E3"/>
<path d="M7.65625 15.6402C7.65625 15.6402 8.96328 15.5965 9.48281 15.1316C8.63516 13.8465 9.09453 12.348 8.91953 10.948C8.74453 9.55352 7.95156 8.7168 6.36562 8.7168H6.34375C4.8125 8.7168 3.98672 9.54805 3.81172 10.948C3.63672 12.3426 4.12344 14.0105 3.25391 15.1316C3.77344 15.602 5.08594 15.5855 5.08594 15.5855C5.08594 15.5855 5.14062 16.373 5.03125 16.5043C4.92188 16.6355 4.59922 16.7613 4.375 16.8051C3.89375 16.909 3.38516 17.0512 2.95859 17.1988C2.53203 17.3465 1.72266 18.1395 1.72266 19.2332H6.11406C6.23438 18.7957 7.06016 18.0137 7.86406 17.6035C8.35625 17.352 8.84297 17.3684 9.21484 17.3191C9.21484 17.3191 9.42266 16.991 8.73906 16.8652C8.73906 16.8652 7.79844 16.6301 7.68906 16.4988C7.58516 16.3785 7.65625 15.6402 7.65625 15.6402ZM20.3438 15.6402C20.3438 15.6402 19.0367 15.5965 18.5172 15.1316C19.3648 13.8465 18.9055 12.348 19.0805 10.948C19.2555 9.55352 20.0484 8.7168 21.6344 8.7168H21.6562C23.1875 8.7168 24.0133 9.54805 24.1883 10.948C24.3633 12.3426 23.8766 14.0105 24.7461 15.1316C24.2266 15.602 22.9141 15.5855 22.9141 15.5855C22.9141 15.5855 22.8594 16.373 22.9688 16.5043C23.0781 16.6355 23.4008 16.7613 23.625 16.8051C24.1063 16.909 24.6148 17.0512 25.0414 17.1988C25.468 17.3465 26.2773 18.1395 26.2773 19.2332H21.8859C21.7656 18.7957 20.9398 18.0137 20.1359 17.6035C19.6438 17.352 19.157 17.3684 18.7852 17.3191C18.7852 17.3191 18.5773 16.991 19.2609 16.8652C19.2609 16.8652 20.2016 16.6301 20.3109 16.4988C20.4148 16.3785 20.3438 15.6402 20.3438 15.6402Z" fill="#E1E1E3"/>
</svg>
